<?xml version='1.0' encoding='UTF-8'?>
<svg viewBox="-4 -4 32 32" xmlns="http://www.w3.org/2000/svg" xmlns:xlink="http://www.w3.org/1999/xlink">
  <g id="Layer_1" transform="translate(-4.00000190734863, -4.00000190734863)" style="enable-background:new 0 0 32 32">
    <g id="Sales">
      <circle cx="23" cy="25" r="3" fill="#FFFFFF" class="White" />
    </g>
  </g>
  <g id="Layer_1" transform="translate(-4, -4)" style="enable-background:new 0 0 32 32">
    <g id="Sales">
      <polygon points="10,18 10,10 10,8 4,8 4,10 8,10 8,20 28,20 28,18  " fill="#FFFFFF" class="White" />
    </g>
  </g>
  <g id="Layer_1" transform="translate(-4.00000095367432, -4)" style="enable-background:new 0 0 32 32">
    <g id="Sales">
      <path d="M13, 16L25, 16C25.6, 16 26, 15.5 26, 15L26, 5C26, 4.5 25.6, 4 25, 4L13, 4C12.4, 4 12, 4.5 12, 5L12, 15C12, 15.5 12.4, 16 13, 16zM20, 6L24, 6L24, 10L20, 10L20, 6z" fill="#FFFFFF" class="White" />
    </g>
  </g>
  <g id="Layer_1" transform="translate(-4.00000095367432, -4.00000190734863)" style="enable-background:new 0 0 32 32">
    <g id="Sales">
      <circle cx="13" cy="25" r="3" fill="#FFFFFF" class="White" />
    </g>
  </g>
</svg>