<?xml version='1.0' encoding='UTF-8'?>
<svg viewBox="-4 -2 32 32" xmlns="http://www.w3.org/2000/svg" xmlns:xlink="http://www.w3.org/1999/xlink">
  <g id="Layer_1" transform="translate(-4.00000045776367, -2)" style="enable-background:new 0 0 32 32">
    <g id="Businessman">
      <path d="M10, 9.9C9.9, 10.4 10.2, 10.8 10.4, 11.3C10.6, 11.8 10.3, 13 11.3, 12.9C11.3, 12.9 11.3, 13 11.3, 13.1C11.9, 15.4 13.3, 18 16, 18C18.7, 18 20.2, 15.4 20.7, 13.1C20.7, 13.1 20.7, 13 20.7, 13C21.7, 13.1 21.3, 11.9 21.6, 11.4C21.8, 10.9 22, 10.5 21.9, 10C21.8, 9.6 21.5, 9.6 21.4, 9.7C23.2, 4.8 20.3, 5 20.3, 5C20.3, 5 20, 2 14.8, 2C10, 2 9.4, 6 10.5, 9.6C10.4, 9.6 10.1, 9.7 10, 9.9z" fill="#727272" class="Black" />
    </g>
  </g>
  <g id="Layer_1" transform="translate(-4, -2.00000190734863)" style="enable-background:new 0 0 32 32">
    <g id="Businessman">
      <path d="M20, 18L17.6, 25.9L17, 22L17.6, 20L14.4, 20L15, 22L14.4, 25.9L12, 18C9.7, 21.5 4, 19 4, 26.5L4, 30L14, 30L15, 30L17, 30L18, 30L28, 30L28, 26.5C28, 19.1 22.3, 21.4 20, 18z" fill="#727272" class="Black" />
    </g>
  </g>
</svg>